<?xml version="1.0" standalone="no"?><!DOCTYPE svg PUBLIC "-//W3C//DTD SVG 1.1//EN" "http://www.w3.org/Graphics/SVG/1.1/DTD/svg11.dtd"><svg t="1622174966510" class="icon" viewBox="0 0 1024 1024" version="1.1" xmlns="http://www.w3.org/2000/svg" p-id="33113" xmlns:xlink="http://www.w3.org/1999/xlink" width="200" height="200"><defs><style type="text/css"></style></defs><path d="M37.129379 212.880911C35.351565 218.71441 34.133333 224.805727 34.133333 231.241275L34.133333 792.757309C34.133333 799.547003 35.441259 805.965551 37.406494 812.063952L349.030089 495.474115 37.129379 212.880911ZM932.625855 853.333333C938.007494 853.333333 943.126743 852.276562 948.078653 850.782065L633.55406 531.098406 511.975902 635.786899 390.593198 531.264143 75.941429 850.799063C80.883968 852.276562 85.992507 853.327667 91.374145 853.327667L932.625855 853.327667 932.625855 853.333333ZM511.975902 563.453215 594.092732 492.762771 635.645133 456.982658 948.71722 173.416259C943.571197 171.799935 938.241768 170.666667 932.625855 170.666667L91.374145 170.666667C85.742168 170.666667 80.398014 171.799935 75.25199 173.433258L388.500787 457.148396 430.069251 492.939844 511.975902 563.453215ZM986.593505 812.063952C988.558742 805.954219 989.866667 799.535671 989.866667 792.757309L989.866667 231.241275C989.866667 224.805727 988.648434 218.71441 986.87062 212.880911L675.111817 495.335291 986.593505 812.063952Z" p-id="33114"></path></svg>